<svg version="1" xmlns="http://www.w3.org/2000/svg" width="309.333" height="120" viewBox="0 0 232 90"><g fill="#C6A969"><path d="M39.4 4.3c-4.45 1.8-9.3 4.3-10.85 5.5C27 11 25.15 12 24.45 12c-2 0-16.05 15.5-18.35 20.3-5.45 11.25.4 22.4 16 30.25 12.5 6.3 15.2 13 6.95 17.2-8.1 4.1-20.7 2.35-23.2-3.2-1.3-2.8-3-3.25-4.7-1.2-1.9 2.25 3.65 9.75 9.3 12.55 7.75 3.8 22.5 1.6 28.35-4.25 6.55-6.55 2-15.6-12.7-25.15-12.05-7.8-15.5-11.6-14.75-16.15C11.9 38.9 20.3 25 21.85 25c.5 0 1.95-1.05 3.25-2.3C31.6 16.35 48.55 8.1 55.25 8c3.8-.05 1.8 6.95-4.15 14.4-5.2 6.55-3.75 10.2 2.65 6.6C60.7 25.05 65.5 15.7 63.8 9.35 61.5.65 52.85-1.15 39.4 4.3zM71.95 21.75c-.6 1.5-1.8 3.35-2.75 4.05-2.05 1.55.1 6.45 3.1 7 2.15.45 7.7-5.55 7.7-8.35 0-5.05-6.4-7.2-8.05-2.7zM88.2 39.2c-.65.65-1.2 2.1-1.2 3.25-.05 1.15-.95 4.05-2.1 6.55-2.35 5.25-6.1 20.25-6.05 24.3.05 5.15 4.9 7.85 7 3.95 1.2-2.15 18.3-19.2 20.6-20.5 2.8-1.55 2.7-.5-1.1 8.75-5.9 14.55-1.85 16.75 9.9 5.3 4.15-4 8.9-8.1 10.65-9.1l3.1-1.8v6.5c0 11.2 5.55 16.6 13.05 12.55C145.7 77 143.85 74 139 74c-1.55 0-1.9-1.25-2.5-8.9-1.2-15.4-6.45-16.7-19.25-4.75-3.75 3.55-3.75 3.55-1.6-2.85l1.65-4.85-3.15-2.8c-2.65-2.4-3.5-2.65-5.75-1.8-3.85 1.45-12.5 7.4-15.85 10.9-4.55 4.75-4.75 3.7-1-5.15 3.95-9.4 4.35-13.25 1.5-14.75-2.5-1.35-3.4-1.3-4.85.15zM164.35 40.9c-6.45 3.95-14.4 18.45-15.15 27.75-.5 6 3.65 11.35 8.75 11.35 9.75-.1 25.45-15.65 23.5-23.35-.55-2.1-.05-2.9 2.95-4.85 4.1-2.65 4.25-3.05 1.95-5.3-1.1-1.1-2.55-1.45-4.25-1.05-4 .9-10.75 1.65-9.35.95 1.95-.9 1.5-5.2-.7-6.35-2.7-1.45-4.1-1.3-7.7.85zm4.05 11c.95 1.05 2.85 2.2 4.15 2.55 4.95 1.2-1.6 11.95-10.5 17.25-7 4.2-8.45 2.15-5.05-6.95 4.35-11.6 8.4-16.15 11.4-12.85zM202.2 41.2c-.65.65-1.2 2.35-1.2 3.8 0 1.4-1.8 7-4 12.4-4.15 10.1-4.85 14.35-2.8 16.4 2.15 2.15 3.7 1.3 14.05-7.85 9.25-8.2 15.4-12.65 16.25-11.75.15.15-.55 3.45-1.55 7.3-2.65 10.05-2.5 15.75.4 19.1 3.4 3.95 5.9 2.75 5.05-2.45-.35-2.3.05-6.8 1-10.95 4.75-21-.05-26.25-14.9-16.25-3.85 2.55-7.5 4.95-8.1 5.3-.55.35-.2-1.85.85-4.95 2.35-7-1.15-14-5.05-10.1zM64.55 48.25c-.2.7-2 6.3-3.95 12.5-4.6 14.35-4.35 22.65.65 21 2.7-.9 11.1-30.7 9.25-32.75-2.05-2.25-5.35-2.65-5.95-.75z"/></g></svg>