<?xml version="1.0" standalone="no"?>
<!DOCTYPE svg PUBLIC "-//W3C//DTD SVG 20010904//EN"
 "http://www.w3.org/TR/2001/REC-SVG-20010904/DTD/svg10.dtd">
<svg version="1.0" xmlns="http://www.w3.org/2000/svg"
 width="232.000000pt" height="90.000000pt" viewBox="0 0 232.000000 90.000000"
 preserveAspectRatio="xMidYMid meet">
<metadata>
Created by potrace 1.10, written by Peter Selinger 2001-2011
</metadata>
<g transform="translate(0.000000,90.000000) scale(0.050000,-0.050000)"
fill="#C6A969" stroke="none">
<path d="M788 1714 c-89 -36 -186 -86 -217 -110 -31 -24 -68 -44 -82 -44 -40
0 -321 -310 -367 -406 -109 -225 8 -448 320 -605 250 -126 304 -260 139 -344
-162 -82 -414 -47 -464 64 -26 56 -60 65 -94 24 -38 -45 73 -195 186 -251 155
-76 450 -32 567 85 131 131 40 312 -254 503 -241 156 -310 232 -295 323 11 69
179 347 210 347 10 0 39 21 65 46 130 127 469 292 603 294 76 1 36 -139 -83
-288 -104 -131 -75 -204 53 -132 139 79 235 266 201 393 -46 174 -219 210
-488 101z"/>
<path d="M1439 1365 c-12 -30 -36 -67 -55 -81 -41 -31 2 -129 62 -140 43 -9
154 111 154 167 0 101 -128 144 -161 54z"/>
<path d="M1764 1016 c-13 -13 -24 -42 -24 -65 -1 -23 -19 -81 -42 -131 -47
-105 -122 -405 -121 -486 1 -103 98 -157 140 -79 24 43 366 384 412 410 56 31
54 10 -22 -175 -118 -291 -37 -335 198 -106 83 80 178 162 213 182 l62 36 0
-130 c0 -224 111 -332 261 -251 73 39 36 99 -61 99 -31 0 -38 25 -50 178 -24
308 -129 334 -385 95 -75 -71 -75 -71 -32 57 l33 97 -63 56 c-53 48 -70 53
-115 36 -77 -29 -250 -148 -317 -218 -91 -95 -95 -74 -20 103 79 188 87 265
30 295 -50 27 -68 26 -97 -3z"/>
<path d="M3287 982 c-129 -79 -288 -369 -303 -555 -10 -120 73 -227 175 -227
195 2 509 313 470 467 -11 42 -1 58 59 97 82 53 85 61 39 106 -22 22 -51 29
-85 21 -80 -18 -215 -33 -187 -19 39 18 30 104 -14 127 -54 29 -82 26 -154
-17z m81 -220 c19 -21 57 -44 83 -51 99 -24 -32 -239 -210 -345 -140 -84 -169
-43 -101 139 87 232 168 323 228 257z"/>
<path d="M4044 976 c-13 -13 -24 -47 -24 -76 0 -28 -36 -140 -80 -248 -83
-202 -97 -287 -56 -328 43 -43 74 -26 281 157 185 164 308 253 325 235 3 -3
-11 -69 -31 -146 -53 -201 -50 -315 8 -382 68 -79 118 -55 101 49 -7 46 1 136
20 219 95 420 -1 525 -298 325 -77 -51 -150 -99 -162 -106 -11 -7 -4 37 17 99
47 140 -23 280 -101 202z"/>
<path d="M1291 835 c-4 -14 -40 -126 -79 -250 -92 -287 -87 -453 13 -420 54
18 222 614 185 655 -41 45 -107 53 -119 15z"/>
</g>
</svg>
